[img]http://img502.imageshack.us/img502/5860/arroww.jpg[/img]

[size=200][color=black]TV INFO[/color][/size]

[code]Arrow S01E10 HDTV x264 AAC-V3nom

Format                                   : MPEG-4
Format profile                           : Base Media / Version 2
Codec ID                                 : mp42
File size                                : 120 MiB
Duration                                 : 42mn 2s
Overall bit rate mode                    : Variable
Overall bit rate                         : 399 Kbps
Encoded date                             : UTC 2013-01-17 10:39:03
Tagged date                              : UTC 2013-01-17 10:50:52

Video
ID                                       : 1
Format                                   : AVC
Format/Info                              : Advanced Video Codec
Format profile                           : Main@L2.1
Format settings, CABAC                   : Yes
Format settings, ReFrames                : 4 frames
Codec ID                                 : avc1
Codec ID/Info                            : Advanced Video Coding
Duration                                 : 42mn 2s
Bit rate mode                            : Variable
Bit rate                                 : 299 Kbps
Width                                    : 640 pixels
Height                                   : 272 pixels
Display aspect ratio                     : 16:9
Frame rate mode                          : Variable
Frame rate                               : 23.976 fps
Minimum frame rate                       : 23.968 fps
Maximum frame rate                       : 90 000.000 fps
Color space                              : YUV
Chroma subsampling                       : 4:2:0
Bit depth                                : 8 bits
Scan type                                : Progressive
Bits/(Pixel*Frame)                       : 0.072
Stream size                              : 89.6 MiB (75%)
Writing library                          : x264 core 112

Audio
ID                                       : 2
Format                                   : AAC
Format/Info                              : Advanced Audio Codec
Format profile                           : LC
Codec ID                                 : 40
Duration                                 : 42mn 2s
Bit rate mode                            : Variable
Bit rate                                 : 96.0 Kbps
Maximum bit rate                         : 160 Kbps
Channel(s)                               : 2 channels
Channel positions                        : Front: L R
Sampling rate                            : 48.0 KHz
Compression mode                         : Lossy
Delay relative to video                  : 42ms
Stream size                              : 28.9 MiB (24%)
Encoded date                             : UTC 2013-01-17 10:39:03
Tagged date                              : UTC 2013-01-17 10:50:50[/code]

[size=200][color=black]SOURCE[/color][/size]

[code]Arrow.S01E10.HDTV.XviD-AFG(THANKS)[/code]

[size=200][color=black]SCREENSHOTS[/color][/size]

[img]http://img692.imageshack.us/img692/3161/arrows01e10hdtvx264aacvv.jpg[/img]

[img]http://kastatic.com/i2/users/133df62bbf28e62494bb17fe11078f1a.gif[/img][img]http://kastatic.com/i2/users/133df62bbf28e62494bb17fe11078f1a.gif[/img]
